<svg width="211" height="44" viewBox="0 0 211 44" fill="none" xmlns="http://www.w3.org/2000/svg">
<rect width="210.75" height="44" fill="white"/>
<rect width="190.75" height="28" transform="translate(10 8)" fill="white"/>
<path d="M33.5799 8C33.219 8.64088 32.8948 9.30387 32.6002 9.98158C29.8009 9.56169 26.9501 9.56169 24.1434 9.98158C23.8562 9.30387 23.5247 8.64088 23.1637 8C20.5339 8.44936 17.9703 9.23757 15.5394 10.3499C10.7217 17.488 9.41785 24.442 10.0661 31.3002C12.8875 33.3849 16.0477 34.9761 19.4142 35.9926C20.1729 34.9761 20.8433 33.8932 21.4179 32.7661C20.3276 32.361 19.2742 31.8527 18.265 31.2634C18.5302 31.0718 18.788 30.8729 19.0385 30.6814C24.9538 33.4659 31.8046 33.4659 37.7272 30.6814C37.9777 30.8877 38.2355 31.0866 38.5007 31.2634C37.4915 31.86 36.4381 32.361 35.3405 32.7735C35.9151 33.9006 36.5854 34.9834 37.3442 36C40.7107 34.9834 43.8709 33.3996 46.6923 31.3149C47.4584 23.3591 45.381 16.4641 41.2042 10.3573C38.7807 9.24494 36.2171 8.45672 33.5873 8.01473L33.5799 8ZM22.2429 27.0792C20.4234 27.0792 18.9132 25.4291 18.9132 23.3886C18.9132 21.3481 20.3644 19.6906 22.2355 19.6906C24.1066 19.6906 25.5946 21.3554 25.5652 23.3886C25.5357 25.4217 24.0993 27.0792 22.2429 27.0792ZM34.5155 27.0792C32.6886 27.0792 31.1932 25.4291 31.1932 23.3886C31.1932 21.3481 32.6444 19.6906 34.5155 19.6906C36.3865 19.6906 37.8672 21.3554 37.8377 23.3886C37.8083 25.4217 36.3718 27.0792 34.5155 27.0792ZM82.4144 13.1123C80.5801 12.2873 78.3407 11.8748 75.6888 11.8748H64.698V31.6096H74.9006C77.7735 31.6096 80.1824 31.1676 82.1271 30.2836C83.9024 29.547 85.4126 28.2947 86.4733 26.6888C87.4236 25.1713 87.9172 23.4107 87.8951 21.6206C87.9245 19.8379 87.4531 18.0847 86.5249 16.5599C85.5378 15.0203 84.1013 13.8122 82.4144 13.105V13.1123ZM78.908 25.2523C77.9503 26.1436 76.5801 26.593 74.7901 26.593H71.7477V16.8987H75.1879C76.9116 16.8987 78.2081 17.3333 79.07 18.1805C79.9466 19.0939 80.4107 20.3315 80.3518 21.6059C80.4181 22.9761 79.8951 24.302 78.9153 25.2597L78.908 25.2523ZM116.308 23.0718C117.206 23.8748 117.656 25.0534 117.663 26.6077C117.692 28.2652 116.838 29.8195 115.416 30.6814C113.936 31.6759 111.814 32.1768 109.059 32.1694C107.475 32.1694 105.899 31.9705 104.367 31.5801C102.915 31.2192 101.53 30.6372 100.249 29.8637V25.186C101.368 25.9963 102.621 26.593 103.954 26.9466C105.413 27.3886 106.93 27.6243 108.455 27.6317C108.978 27.6611 109.508 27.5654 109.995 27.3665C110.341 27.1897 110.51 26.9613 110.51 26.733C110.518 26.4678 110.414 26.2173 110.23 26.0258C109.906 25.7827 109.53 25.6133 109.133 25.547L105.751 24.7882C103.814 24.3389 102.437 23.7127 101.626 22.9171C100.801 22.0847 100.359 20.9429 100.418 19.7716C100.403 18.7256 100.786 17.709 101.486 16.9282C102.319 16.0442 103.372 15.4033 104.529 15.0571C106.024 14.5856 107.586 14.3646 109.155 14.3941C110.621 14.3794 112.079 14.5488 113.494 14.9024C114.643 15.175 115.74 15.6096 116.764 16.1989V20.6262C115.807 20.0737 114.775 19.6464 113.707 19.3738C112.543 19.0645 111.343 18.9024 110.142 18.9024C108.374 18.9024 107.49 19.2044 107.49 19.8011C107.49 20.0737 107.645 20.3241 107.895 20.4346C108.381 20.6409 108.882 20.7882 109.398 20.8692L112.219 21.3775C114.046 21.7017 115.416 22.2615 116.315 23.0718H116.308ZM135.018 26.3278C135.843 26.0921 136.632 25.7532 137.368 25.326V30.3204C135.188 31.5875 132.698 32.2357 130.179 32.1842C128.16 32.2357 126.149 31.8306 124.315 30.9908C122.805 30.2983 121.538 29.1786 120.661 27.7716C119.844 26.3867 119.424 24.8103 119.453 23.2044C119.431 21.5985 119.873 20.0221 120.72 18.6667C121.626 17.2818 122.923 16.1915 124.44 15.5285C126.289 14.7256 128.285 14.3352 130.304 14.3867C133.125 14.3867 135.46 14.9761 137.324 16.1621V21.326C136.617 20.8471 135.844 20.4788 135.026 20.2284C134.112 19.9411 133.162 19.8011 132.204 19.8085C130.459 19.8085 129.088 20.1252 128.101 20.7661C126.716 21.5396 126.216 23.2928 126.989 24.6851C127.239 25.1344 127.615 25.5101 128.057 25.7753C129.015 26.4236 130.407 26.7477 132.227 26.7477C133.169 26.7477 134.105 26.6151 135.004 26.3425L135.018 26.3278ZM155.888 15.5212C152.182 14.0184 148.035 14.0184 144.33 15.5212C142.82 16.1842 141.538 17.267 140.624 18.6372C139.762 19.9926 139.313 21.5617 139.343 23.1676C139.32 24.7882 139.77 26.3867 140.624 27.7643C141.53 29.1713 142.827 30.291 144.352 30.9834C148.035 32.5525 152.197 32.5525 155.88 30.9761C157.398 30.2836 158.687 29.1639 159.586 27.7569C160.433 26.372 160.875 24.7808 160.853 23.1602C160.882 21.5543 160.44 19.9779 159.586 18.6225C158.68 17.2597 157.398 16.1768 155.895 15.5212H155.888ZM152.912 25.9816C152.153 26.6961 151.136 27.0718 150.09 27.0055C149.052 27.0571 148.035 26.6888 147.269 25.9816C146.569 25.2523 146.193 24.2726 146.245 23.256C146.193 22.2541 146.569 21.2818 147.269 20.5672C148.035 19.8674 149.052 19.5138 150.09 19.5654C151.129 19.5064 152.146 19.8674 152.912 20.5672C153.619 21.2818 153.995 22.2541 153.943 23.256C153.987 24.2652 153.619 25.2523 152.912 25.9816ZM175.225 14.7403C176.123 14.7182 177.015 14.9466 177.788 15.418V21.5175C176.948 21.0166 175.976 20.7735 174.996 20.8103C173.494 20.8103 172.337 21.267 171.527 22.1805C170.724 23.0939 170.319 24.5083 170.319 26.4236V31.6096H163.409V15.116H170.171V20.3536C170.547 18.4383 171.151 17.0239 171.991 16.1105C172.816 15.2044 173.987 14.7035 175.21 14.7403H175.225ZM193.832 11.3076V18.6593C192.705 15.8011 190.495 14.372 187.21 14.372C185.707 14.3499 184.227 14.7477 182.937 15.5285C181.685 16.3094 180.676 17.4217 180.035 18.7477C179.335 20.1989 178.989 21.7901 179.041 23.3959C179.011 24.9503 179.335 26.4825 179.983 27.8969C180.573 29.1713 181.516 30.2615 182.694 31.0276C183.917 31.8011 185.339 32.1989 186.783 32.1694C188.322 32.2136 189.84 31.8379 191.173 31.0718C192.381 30.3278 193.317 29.2155 193.84 27.8969V31.6022H200.75V11.3076H193.84H193.832ZM192.816 25.8858C192.05 26.593 191.033 26.954 189.995 26.895C188.978 26.9466 187.983 26.5783 187.232 25.8858C186.525 25.2007 186.142 24.2431 186.179 23.256C186.142 22.2762 186.518 21.3333 187.225 20.6483C188.853 19.3223 191.188 19.3223 192.816 20.6483C193.523 21.3112 193.906 22.2468 193.877 23.2192C193.914 24.2136 193.53 25.186 192.816 25.8858ZM97.1621 13.7827C97.1621 15.4917 95.6225 16.8766 93.722 16.8766C91.8214 16.8766 90.2818 15.4917 90.2818 13.7827C90.2818 12.0737 91.8214 10.6888 93.722 10.6888C95.6225 10.6888 97.1621 12.0737 97.1621 13.7827ZM97.1621 19.0055V31.698H90.2744V19.0055C92.477 19.9337 94.9595 19.9337 97.1621 19.0055Z" fill="black"/>
</svg>
