<?xml version="1.0" encoding="utf-8"?>
<!-- Generator: Adobe Illustrator 23.0.1, SVG Export Plug-In . SVG Version: 6.00 Build 0)  -->
<svg version="1.1" id="Layer_1" xmlns="http://www.w3.org/2000/svg" xmlns:xlink="http://www.w3.org/1999/xlink" x="0px" y="0px"
	 viewBox="0 0 64 64" style="enable-background:new 0 0 64 64;" xml:space="preserve">
<style type="text/css">
	.st0{fill:#00A4E4;}
	.st1{fill:#EF3E42;}
</style>
<title>crop</title>
<g>
	<path class="st0" d="M43,51v10c0,0.6,0.4,1,1,1h4c0.6,0,1-0.4,1-1V51H43z"/>
	<path class="st0" d="M61,43H49V16c0-0.6-0.4-1-1-1H21V3c0-0.6-0.4-1-1-1h-4c-0.6,0-1,0.4-1,1v12H3c-0.6,0-1,0.4-1,1v4
		c0,0.6,0.4,1,1,1h40v22H21V23h-6v25c0,0.6,0.4,1,1,1h45c0.6,0,1-0.4,1-1v-4C62,43.4,61.6,43,61,43z"/>
	<path class="st1" d="M51,14c-0.3,0-0.5-0.1-0.7-0.3c-0.4-0.4-0.4-1,0-1.4l10-10c0.4-0.4,1-0.4,1.4,0s0.4,1,0,1.4l-10,10
		C51.5,13.9,51.3,14,51,14z"/>
	<path class="st1" d="M24,41c-0.3,0-0.5-0.1-0.7-0.3c-0.4-0.4-0.4-1,0-1.4l16-16c0.4-0.4,1-0.4,1.4,0s0.4,1,0,1.4l-16,16
		C24.5,40.9,24.3,41,24,41z"/>
</g>
</svg>
